<?xml version="1.0" encoding="utf-8"?>
<!-- Generator: Adobe Illustrator 25.2.0, SVG Export Plug-In . SVG Version: 6.00 Build 0)  -->
<svg version="1.1" id="Art" xmlns="http://www.w3.org/2000/svg" xmlns:xlink="http://www.w3.org/1999/xlink" x="0px" y="0px"
	 viewBox="0 0 990.22 383.41" style="enable-background:new 0 0 990.22 383.41;" xml:space="preserve">
<style type="text/css">
	.st0{fill:#F7931E;}
</style>
<g>
	<g>
		<g>
			<path d="M546.08,5.1c13.14,0,18.45,9.72,18.45,19.44c0,9.81-5.31,19.35-18.45,19.35h-16.29v23.22h-8.46V5.1H546.08z
				 M529.79,12.93v23.13h15.75c7.56,0,10.62-5.76,10.62-11.52c0-5.67-2.97-11.61-10.17-11.61H529.79z"/>
			<path d="M605.92,60.63c-2.79,4.77-8.91,7.38-14.76,7.38c-11.52,0-21.33-8.64-21.33-21.96c0-13.41,9.81-21.87,21.33-21.87
				c5.85,0,11.97,2.43,14.76,7.2v-6.3h8.1v42.03h-8.1V60.63z M591.89,32.19c-7.56,0-13.68,5.4-13.68,13.77
				c0,8.28,6.12,14.04,13.68,14.04c7.47,0,13.95-5.13,13.95-14.04C605.83,36.96,598.64,32.19,591.89,32.19z"/>
			<path d="M635.9,67.11h-8.19V25.08h8.19v9.45c2.16-7.38,6.21-10.35,11.7-10.35c2.97,0,6.12,0.81,7.29,1.62l-1.26,7.65
				c-2.25-1.08-4.5-1.44-6.21-1.44c-8.1,0-11.52,8.64-11.52,19.8V67.11z"/>
			<path d="M671.36,67.11h-8.1V2.22h8.1v37.53l14.49-14.67H697l-18,18.18l22.32,23.85h-10.8l-19.17-20.52V67.11z"/>
			<path d="M712.49,4.29c3.15,0,5.67,2.25,5.67,5.31c0,3.06-2.52,5.31-5.67,5.31c-3.06,0-5.67-2.25-5.67-5.31
				C706.82,6.54,709.42,4.29,712.49,4.29z M716.54,25.08h-8.1v42.03h8.1V25.08z"/>
			<path d="M738.4,67.11h-8.19V25.08h8.19v6.3c2.52-5.04,8.55-7.2,13.14-7.2c10.44,0,16.2,6.84,16.2,18.63v24.3
				c-1.35,0-6.93,0-8.19,0V43.35c0-7.02-3.51-11.16-9.27-11.16c-5.94,0-11.88,3.33-11.88,12.24V67.11z"/>
			<path d="M779.17,34.89c0.63-6.12,7.11-10.71,14.58-10.71c7.11,0,13.86,3.33,14.58,11.88h-7.83c-0.45-3.15-3.33-4.77-6.57-4.77
				c-3.06,0-5.67,1.53-6.3,3.78c-0.36,1.35-0.36,2.34,0.09,3.33c0.81,1.71,2.79,2.61,4.95,3.24l6.21,1.53
				c8.73,2.16,10.89,7.47,10.89,12.24c0,7.83-7.56,12.6-16.29,12.6c-7.56,0-15.39-4.86-15.66-13.5h7.47
				c0.27,1.8,1.44,3.78,3.42,4.77c1.8,1.08,3.96,1.62,6.66,1.44c3.78-0.27,6.3-2.43,6.39-5.49c0.09-3.06-2.52-4.59-5.58-5.31
				l-5.76-1.35C782.77,46.5,778.45,42.63,779.17,34.89z"/>
			<path d="M817.6,45.96c0-13.32,9.99-21.78,21.96-21.78c11.97,0,22.05,8.46,22.05,21.78c0,13.32-10.08,22.05-22.05,22.05
				C827.59,68.01,817.6,59.28,817.6,45.96z M853.42,45.96c0-8.46-6.3-13.77-13.86-13.77c-7.56,0-13.86,5.31-13.86,13.77
				c0,8.55,6.3,14.13,13.86,14.13C847.12,60.09,853.42,54.51,853.42,45.96z"/>
			<path d="M880.69,67.11h-8.19V25.08h8.19v6.3c2.52-5.04,8.55-7.2,13.14-7.2c10.44,0,16.2,6.84,16.2,18.63v24.3
				c-1.35,0-6.93,0-8.19,0V43.35c0-7.02-3.51-11.16-9.27-11.16c-5.94,0-11.88,3.33-11.88,12.24V67.11z"/>
			<path d="M919.57,24.54c3.24-4.59,5.76-11.16,5.67-18.99h7.47c-0.81,10.17-4.77,17.73-8.37,20.7L919.57,24.54z"/>
			<path d="M940.09,34.89c0.63-6.12,7.11-10.71,14.58-10.71c7.11,0,13.86,3.33,14.58,11.88h-7.83c-0.45-3.15-3.33-4.77-6.57-4.77
				c-3.06,0-5.67,1.53-6.3,3.78c-0.36,1.35-0.36,2.34,0.09,3.33c0.81,1.71,2.79,2.61,4.95,3.24l6.21,1.53
				c8.73,2.16,10.89,7.47,10.89,12.24c0,7.83-7.56,12.6-16.29,12.6c-7.56,0-15.39-4.86-15.66-13.5h7.47
				c0.27,1.8,1.44,3.78,3.42,4.77c1.8,1.08,3.96,1.62,6.66,1.44c3.78-0.27,6.3-2.43,6.39-5.49c0.09-3.06-2.52-4.59-5.58-5.31
				l-5.76-1.35C943.69,46.5,939.37,42.63,940.09,34.89z"/>
			<path d="M546.08,109.1c13.14,0,18.45,9.72,18.45,19.44c0,9.81-5.31,19.35-18.45,19.35h-16.29v23.22h-8.46V109.1H546.08z
				 M529.79,116.93v23.13h15.75c7.56,0,10.62-5.76,10.62-11.52c0-5.67-2.97-11.61-10.17-11.61H529.79z"/>
			<path d="M581.9,171.11h-8.19v-42.03h8.19v9.45c2.16-7.38,6.21-10.35,11.7-10.35c2.97,0,6.12,0.81,7.29,1.62l-1.26,7.65
				c-2.25-1.08-4.5-1.44-6.21-1.44c-8.1,0-11.52,8.64-11.52,19.8V171.11z"/>
			<path d="M605.39,149.96c0-13.32,9.99-21.78,21.96-21.78s22.05,8.46,22.05,21.78c0,13.32-10.08,22.05-22.05,22.05
				S605.39,163.28,605.39,149.96z M641.2,149.96c0-8.46-6.3-13.77-13.86-13.77s-13.86,5.31-13.86,13.77
				c0,8.55,6.3,14.13,13.86,14.13S641.2,158.51,641.2,149.96z"/>
			<path d="M678.73,184.34c9.09,0,14.94-5.13,14.94-19.08c0-0.36-0.09-0.63-0.09-0.99c-2.52,4.95-8.91,7.74-14.76,7.74
				c-11.52,0-21.33-8.46-21.33-21.78c0-13.41,9.81-22.05,21.33-22.05c5.85,0,11.97,2.61,14.76,7.47v-6.57h8.1v35.64
				c0,19.8-9.09,27.36-22.95,27.36c-7.74,0-14.94-3.96-18.99-11.34c1.08-0.45,5.76-3.06,6.84-3.6
				C669.1,181.82,674.05,184.34,678.73,184.34z M679.54,136.19c-7.56,0-13.68,5.76-13.68,13.95c0,8.55,6.12,13.86,13.68,13.86
				c6.75,0,13.95-4.95,13.95-13.86C693.49,141.14,687.01,136.19,679.54,136.19z"/>
			<path d="M723.46,171.11h-8.19v-42.03h8.19v9.45c2.16-7.38,6.21-10.35,11.7-10.35c2.97,0,6.12,0.81,7.29,1.62l-1.26,7.65
				c-2.25-1.08-4.5-1.44-6.21-1.44c-8.1,0-11.52,8.64-11.52,19.8V171.11z"/>
			<path d="M789.25,153.2h-34.11c0.99,7.02,6.48,11.43,13.59,11.43c5.04,0,9.72-2.34,12.06-6.48c2.16,0.9,4.77,1.8,7.02,2.7
				c-3.6,7.38-11.25,11.16-19.35,11.16c-11.97,0-21.51-8.73-21.51-22.05c0-13.32,9.54-21.78,21.51-21.78
				c11.97,0,20.88,8.46,20.88,21.78C789.34,150.95,789.34,152.3,789.25,153.2z M781.24,146.81c-0.99-7.02-6.03-11.25-12.78-11.25
				c-6.93,0-12.33,4.23-13.32,11.25H781.24z"/>
			<path d="M798.07,138.89c0.63-6.12,7.11-10.71,14.58-10.71c7.11,0,13.86,3.33,14.58,11.88h-7.83c-0.45-3.15-3.33-4.77-6.57-4.77
				c-3.06,0-5.67,1.53-6.3,3.78c-0.36,1.35-0.36,2.34,0.09,3.33c0.81,1.71,2.79,2.61,4.95,3.24l6.21,1.53
				c8.73,2.16,10.89,7.47,10.89,12.24c0,7.83-7.56,12.6-16.29,12.6c-7.56,0-15.39-4.86-15.66-13.5h7.47
				c0.27,1.8,1.44,3.78,3.42,4.77c1.8,1.08,3.96,1.62,6.66,1.44c3.78-0.27,6.3-2.43,6.39-5.49c0.09-3.06-2.52-4.59-5.58-5.31
				l-5.76-1.35C801.67,150.5,797.35,146.63,798.07,138.89z"/>
			<path d="M837.58,138.89c0.63-6.12,7.11-10.71,14.58-10.71c7.11,0,13.86,3.33,14.58,11.88h-7.83c-0.45-3.15-3.33-4.77-6.57-4.77
				c-3.06,0-5.67,1.53-6.3,3.78c-0.36,1.35-0.36,2.34,0.09,3.33c0.81,1.71,2.79,2.61,4.95,3.24l6.21,1.53
				c8.73,2.16,10.89,7.47,10.89,12.24c0,7.83-7.56,12.6-16.29,12.6c-7.56,0-15.39-4.86-15.66-13.5h7.47
				c0.27,1.8,1.44,3.78,3.42,4.77c1.8,1.08,3.96,1.62,6.66,1.44c3.78-0.27,6.3-2.43,6.39-5.49c0.09-3.06-2.52-4.59-5.58-5.31
				l-5.76-1.35C841.18,150.5,836.86,146.63,837.58,138.89z"/>
			<path d="M882.85,108.29c3.15,0,5.67,2.25,5.67,5.31c0,3.06-2.52,5.31-5.67,5.31c-3.06,0-5.67-2.25-5.67-5.31
				C877.18,110.54,879.79,108.29,882.85,108.29z M886.9,129.08h-8.1v42.03h8.1V129.08z"/>
			<path d="M897.79,149.96c0-13.32,9.99-21.78,21.96-21.78s22.05,8.46,22.05,21.78c0,13.32-10.08,22.05-22.05,22.05
				S897.79,163.28,897.79,149.96z M933.61,149.96c0-8.46-6.3-13.77-13.86-13.77s-13.86,5.31-13.86,13.77
				c0,8.55,6.3,14.13,13.86,14.13S933.61,158.51,933.61,149.96z"/>
			<path d="M960.88,171.11h-8.19v-42.03h8.19v6.3c2.52-5.04,8.55-7.2,13.14-7.2c10.44,0,16.2,6.84,16.2,18.63v24.3
				c-1.35,0-6.93,0-8.19,0v-23.76c0-7.02-3.51-11.16-9.27-11.16c-5.94,0-11.88,3.33-11.88,12.24V171.11z"/>
			<path d="M576.76,213.1h7.65l7.56,62.01h-8.28l-5.67-46.62l-19.35,39.78h-7.38l-19.53-39.78l-5.67,46.62h-8.28l7.56-62.01h7.65
				l21.87,45.54L576.76,213.1z"/>
			<path d="M636.52,268.63c-2.79,4.77-8.91,7.38-14.76,7.38c-11.52,0-21.33-8.64-21.33-21.96c0-13.41,9.81-21.87,21.33-21.87
				c5.85,0,11.97,2.43,14.76,7.2v-6.3h8.1v42.03h-8.1V268.63z M622.49,240.19c-7.56,0-13.68,5.4-13.68,13.77
				c0,8.28,6.12,14.04,13.68,14.04c7.47,0,13.95-5.13,13.95-14.04C636.43,244.96,629.24,240.19,622.49,240.19z"/>
			<path d="M666.5,275.11h-8.19v-42.03h8.19v9.45c2.16-7.38,6.21-10.35,11.7-10.35c2.97,0,6.12,0.81,7.29,1.62l-1.26,7.65
				c-2.25-1.08-4.5-1.44-6.21-1.44c-8.1,0-11.52,8.64-11.52,19.8V275.11z"/>
			<path d="M701.96,275.11h-8.1v-64.89h8.1v37.53l14.49-14.67h11.16l-18,18.18l22.32,23.85h-10.8l-19.17-20.52V275.11z"/>
			<path d="M775.93,257.2h-34.11c0.99,7.02,6.48,11.43,13.59,11.43c5.04,0,9.72-2.34,12.06-6.48c2.16,0.9,4.77,1.8,7.02,2.7
				c-3.6,7.38-11.25,11.16-19.35,11.16c-11.97,0-21.51-8.73-21.51-22.05c0-13.32,9.54-21.78,21.51-21.78s20.88,8.46,20.88,21.78
				C776.02,254.95,776.02,256.3,775.93,257.2z M767.92,250.81c-0.99-7.02-6.03-11.25-12.78-11.25c-6.93,0-12.33,4.23-13.32,11.25
				H767.92z"/>
			<path d="M794.66,275.11h-8.19v-42.03h8.19v9.45c2.16-7.38,6.21-10.35,11.7-10.35c2.97,0,6.12,0.81,7.29,1.62l-1.26,7.65
				c-2.25-1.08-4.5-1.44-6.21-1.44c-8.1,0-11.52,8.64-11.52,19.8V275.11z"/>
			<path d="M819.94,242.89c0.63-6.12,7.11-10.71,14.58-10.71c7.11,0,13.86,3.33,14.58,11.88h-7.83c-0.45-3.15-3.33-4.77-6.57-4.77
				c-3.06,0-5.67,1.53-6.3,3.78c-0.36,1.35-0.36,2.34,0.09,3.33c0.81,1.71,2.79,2.61,4.95,3.24l6.21,1.53
				c8.73,2.16,10.89,7.47,10.89,12.24c0,7.83-7.56,12.6-16.29,12.6c-7.56,0-15.39-4.86-15.66-13.5h7.47
				c0.27,1.8,1.44,3.78,3.42,4.77c1.8,1.08,3.96,1.62,6.66,1.44c3.78-0.27,6.3-2.43,6.39-5.49c0.09-3.06-2.52-4.59-5.58-5.31
				l-5.76-1.35C823.54,254.5,819.22,250.63,819.94,242.89z"/>
			<path d="M529.7,317.1v62.01h-8.37V317.1H529.7z"/>
			<path d="M553.19,379.11H545v-42.03h8.19v6.3c2.52-5.04,8.55-7.2,13.14-7.2c10.44,0,16.2,6.84,16.2,18.63v24.3
				c-1.35,0-6.93,0-8.19,0v-23.76c0-7.02-3.51-11.16-9.27-11.16c-5.94,0-11.88,3.33-11.88,12.24V379.11z"/>
			<path d="M599.71,316.29c3.15,0,5.67,2.25,5.67,5.31c0,3.06-2.52,5.31-5.67,5.31c-3.06,0-5.67-2.25-5.67-5.31
				C594.04,318.54,596.65,316.29,599.71,316.29z M603.76,337.08h-8.1v42.03h8.1V337.08z"/>
			<path d="M637.69,337.08v6.93h-8.91v35.1h-8.19v-35.1h-7.56v-6.93h7.56v-15.84h8.19v15.84H637.69z"/>
			<path d="M651.01,316.29c3.15,0,5.67,2.25,5.67,5.31c0,3.06-2.52,5.31-5.67,5.31c-3.06,0-5.67-2.25-5.67-5.31
				C645.34,318.54,647.95,316.29,651.01,316.29z M655.06,337.08h-8.1v42.03h8.1V337.08z"/>
			<path d="M702.04,372.63c-2.79,4.77-8.91,7.38-14.76,7.38c-11.52,0-21.33-8.64-21.33-21.96c0-13.41,9.81-21.87,21.33-21.87
				c5.85,0,11.97,2.43,14.76,7.2v-6.3h8.1v42.03h-8.1V372.63z M688,344.19c-7.56,0-13.68,5.4-13.68,13.77
				c0,8.28,6.12,14.04,13.68,14.04c7.47,0,13.95-5.13,13.95-14.04C701.95,348.96,694.75,344.19,688,344.19z"/>
			<path d="M744.07,337.08v6.93h-8.91v35.1h-8.19v-35.1h-7.56v-6.93h7.56v-15.84h8.19v15.84H744.07z"/>
			<path d="M757.39,316.29c3.15,0,5.67,2.25,5.67,5.31c0,3.06-2.52,5.31-5.67,5.31c-3.06,0-5.67-2.25-5.67-5.31
				C751.72,318.54,754.33,316.29,757.39,316.29z M761.44,337.08h-8.1v42.03h8.1V337.08z"/>
			<path d="M778.45,337.08l12.78,31.59l12.69-31.59h8.73l-17.55,42.03h0.09h-7.92l-17.46-42.03H778.45z"/>
			<path d="M859.54,361.2h-34.11c0.99,7.02,6.48,11.43,13.59,11.43c5.04,0,9.72-2.34,12.06-6.48c2.16,0.9,4.77,1.8,7.02,2.7
				c-3.6,7.38-11.25,11.16-19.35,11.16c-11.97,0-21.51-8.73-21.51-22.05c0-13.32,9.54-21.78,21.51-21.78s20.88,8.46,20.88,21.78
				C859.63,358.95,859.63,360.3,859.54,361.2z M851.53,354.81c-0.99-7.02-6.03-11.25-12.78-11.25c-6.93,0-12.33,4.23-13.32,11.25
				H851.53z"/>
		</g>
	</g>
	<g>
		<path class="st0" d="M299.66,173.6c0-33.85-27.54-61.39-61.39-61.39c-33.85,0-61.39,27.54-61.39,61.39s27.54,61.39,61.39,61.39
			C272.12,234.99,299.66,207.45,299.66,173.6z M238.27,225.99c-28.89,0-52.39-23.5-52.39-52.39s23.5-52.39,52.39-52.39
			s52.39,23.5,52.39,52.39S267.16,225.99,238.27,225.99z"/>
		<path class="st0" d="M74.04,252.06c-11.53,11.53-17.88,26.87-17.88,43.17c0,33.67,27.39,61.06,61.06,61.06
			s61.06-27.39,61.06-61.06c0-18.19-9.71-32.97-19.1-47.27c-3.11-4.73-6.04-9.2-8.6-13.75c-12.74-22.62-18.93-42.91-18.93-62.02
			c0-59.71,48.58-108.29,108.29-108.29c59.71,0,108.29,48.58,108.29,108.29c0,24.81-8.6,49.06-24.23,68.27
			c-15.41,18.94-36.94,32.25-60.64,37.48l1.94,8.79c25.67-5.66,49-20.07,65.68-40.59c16.92-20.81,26.25-47.07,26.25-73.95
			c0-64.67-52.61-117.29-117.29-117.29s-117.29,52.61-117.29,117.29c0,1.84,0.07,3.69,0.17,5.54c-2.91-0.3-5.6-0.32-6.42-0.32
			c-18.42,0-36.03,4.18-52.36,12.42C24.53,209.76,0,249.6,0,293.81h9c0-40.79,22.64-77.55,59.08-95.94
			c15.06-7.6,31.31-11.45,48.32-11.45c2.33-0.01,5.24,0.18,7.34,0.5c0.86,5.87,2.22,11.84,4.1,17.94
			c-3.49-0.41-7.02-0.62-10.54-0.62c-49.4,0-89.59,40.19-89.59,89.59c0,49.4,40.19,89.59,89.59,89.59v-9
			c-44.44,0-80.59-36.15-80.59-80.59c0-44.44,36.15-80.59,80.59-80.59c4.43,0,8.87,0.36,13.2,1.07l0.66,0.06
			c3.04,7.85,6.88,15.91,11.58,24.26c2.71,4.81,5.87,9.62,8.92,14.27c8.66,13.19,17.62,26.84,17.62,42.33
			c0,28.71-23.35,52.06-52.06,52.06s-52.06-23.35-52.06-52.06c0-13.91,5.42-26.98,15.25-36.81L74.04,252.06z"/>
		<path class="st0" d="M350.3,267.53c22.38-26.34,34.7-59.91,34.7-94.52c0-80.54-65.52-146.06-146.06-146.06
			c-40.96,0-80.3,17.36-107.92,47.64l6.65,6.07c25.92-28.41,62.84-44.71,101.27-44.71C314.51,35.96,376,97.44,376,173.02
			c0,32.48-11.56,63.98-32.56,88.69c-20.76,24.44-49.49,40.9-80.89,46.35l1.54,8.87C297.56,311.11,328.18,293.57,350.3,267.53z"/>
		<path class="st0" d="M403.78,174.18c0,51.84-23.63,99.67-64.84,131.22l5.47,7.15c20.79-15.92,38-36.66,49.77-59.97
			c12.34-24.45,18.6-50.82,18.6-78.4H403.78z"/>
		<path class="st0" d="M238.6,9c61.12,0,116.99,33.52,145.81,87.49l7.94-4.24C361.96,35.35,303.05,0,238.6,0
			c-23.51,0-46.32,4.61-67.8,13.69l3.51,8.29C194.67,13.37,216.3,9,238.6,9z"/>
		<path class="st0" d="M150.33,293.99c0-18.3-14.89-33.19-33.19-33.19c-18.3,0-33.19,14.89-33.19,33.19
			c0,18.3,14.89,33.19,33.19,33.19C135.44,327.18,150.33,312.29,150.33,293.99z M92.94,293.99c0-13.34,10.85-24.19,24.19-24.19
			s24.19,10.85,24.19,24.19c0,13.34-10.85,24.19-24.19,24.19S92.94,307.33,92.94,293.99z"/>
		<path class="st0" d="M158.43,173.02c0-44.48,36.19-80.67,80.67-80.67s80.67,36.19,80.67,80.67c0,20.21-7.5,39.54-21.13,54.43
			l6.64,6.08c15.15-16.56,23.49-38.05,23.49-60.51c0-49.44-40.23-89.67-89.67-89.67c-49.44,0-89.67,40.23-89.67,89.67
			c0,27.03,12.2,46.97,25.78,66.69c9.17,13.3,21.35,33.52,21.35,55.44c0,22.25-8.87,42.97-24.98,58.33l6.21,6.51
			c17.91-17.08,27.77-40.1,27.77-64.84c0-24.43-13.09-46.26-22.94-60.55C169.87,216.1,158.43,197.47,158.43,173.02z"/>
	</g>
</g>
</svg>
