<svg xmlns="http://www.w3.org/2000/svg" viewBox="0 0 80.5 87.97">
    <g fill="#fff">
        <path d="M39.75 85.27C-1.69 66.1 3.28 23.3 3.3 3.29l73.33.07c-.02 20.01 4.59 62.83-36.88 81.91zM3.3-.02L.14 3.32c0 2.39-.09 5.4-.11 6.88-.28 23.51 1.29 60.07 39.54 77.78 20.24-9.39 35.55-25.51 39.57-50.5 2.34-14.47.94-28.21 1-37.45z"
        />
        <path d="M24.09 52.54l-6.82 7.29c-.22.24-.25.49-.11.64a2.29 2.29 0 0 0 .59.51c.18 0 .31.12.63-.22.13-.15 3.36-3.26 7.17-6.93a3.92 3.92 0 0 1-.72-.5 7.93 7.93 0 0 1-.74-.79zm1.96-.83a12.2 12.2 0 0 0 2 1.43l-.67.64c-.25.28-1.2-.16-2.12-1s-1.45-1.7-1.19-2l.74-.67a9.1 9.1 0 0 0 1.24 1.6zm33.5 8.08a2 2 0 0 0 .63-1.17l.66.32c.19.21 0 1-.58 1.59s-1.45.81-1.65.6l-.35-.72a1.93 1.93 0 0 0 1.29-.62zm-1.01-1.08a2 2 0 0 0 .53-.84l.43.3c.14.15 0 .64-.44 1.08s-1.06.59-1.21.44l-.25-.47a2.59 2.59 0 0 0 .94-.51zm2.05-33.47l-.78.69c-1.07.41-3.49-1.44-5.4-3.12-1.28-1.12-3.84-3.94-3.11-5.08l.32-.33-.58-.34a1.42 1.42 0 0 0-.82-.15c-.3 0-.55.16-.57.41a4.14 4.14 0 0 0 .65 2 20.5 20.5 0 0 0 5.21 5.66 15.57 15.57 0 0 0 4.35 2.33c.22.08 1 .24 1.31-.09s0-.92-.29-1.49a3.19 3.19 0 0 0-.29-.49zm-2.26 32.3c-1.2-1.41-10.69-12.56-12.14-14.24S34.96 29.93 31.75 25.93a23.45 23.45 0 0 1-4.43-11.86v-.78c0-.08-.21-.06-.25 0a21.62 21.62 0 0 1-4.82 6.09 27.31 27.31 0 0 1-7.17 4.84c-.06 0-.1.13-.07.15a20.86 20.86 0 0 0 2.52.2c3.31.28 4.69 1.36 7.71 3.29 3.51 2.24 11.93 10.43 13.51 11.97s18 18 18.35 18.36c0 0 .25.27.29.29a1.29 1.29 0 0 0 .62-.26 1.36 1.36 0 0 0 .41-.53zm-1.58-.47s-9-9.19-14.79-15.13c-11.33-11.7-16.52-15.31-19.29-16.79a23.28 23.28 0 0 0-3.55-1.35c-.24-.13-.29-.32.16-.72a8.12 8.12 0 0 1 2.3-1.24 4.21 4.21 0 0 1 1.83.52c1.54.66 2.83 1.45 6.24 4.84 1.14 1.14 2.43 2.47 3.88 4 10.22 10.93 23.43 25.68 23.43 25.68z"
        />
        <path d="M25.81 10.39a6.34 6.34 0 0 0-2.44.9 30.56 30.56 0 0 0-8.94 7.69 16.71 16.71 0 0 0-1.41 2.21c-1.06 2 .41 2.49 1.46 2.06a20.15 20.15 0 0 0 5-3.09c4.21-3.54 6.68-6.87 7-8.35.22-.65.17-1.37-.67-1.42zm-.5 2.09a15.11 15.11 0 0 1-1.85 2.7 42 42 0 0 1-2.9 3.08c-.05 0-.26 0-.17-.19.65-1.59-.33-2.64-.22-3a3.76 3.76 0 0 1 .58-1.2 13.44 13.44 0 0 1 4.39-2.44c.09.07.31.16.34.38a1.66 1.66 0 0 1-.17.68zm13.21 28.28c-.69.65-11.35 10.88-11.35 10.88.15.15.61.48.61.48s9.79-9.4 10.52-10.08c.2-.19.63-.59.79-.72zm20.1-12.61h.45a1.29 1.29 0 0 0 .41-.08c.09-.07.15-.17 0-.18a7.13 7.13 0 0 1-2.44-.75 18.79 18.79 0 0 0-2.87 1c-1.54.69-4.91 2.7-11.8 9l.54.63a81.7 81.7 0 0 1 7.32-6.11 22.51 22.51 0 0 1 6.81-3.27 12.06 12.06 0 0 1 1.58-.24zm-6.71-5.02a10.38 10.38 0 0 1-2.8-4.42v-.1a.07.07 0 0 0-.11 0 .76.76 0 0 0 0 .13c-.17 2 0 2.89-.84 5a23 23 0 0 1-3.72 6c-1 1.17-2.7 3.09-4.27 4.88l1.1 1.3c.11-.12.46-.49.85-.92a84.68 84.68 0 0 1 11.42-10.34 20.18 20.18 0 0 1-1.63-1.53zM36.32 38.76c-2.22 2.5-4.45 5-5.1 5.69s-5.4 5.83-5.4 5.83a2.26 2.26 0 0 0 .27.38c.15.17.41.4.41.4S36.67 40.61 37.44 39.8zm17.43-22.53V16c-.53-.14-.94-.12-1.15.11-.67.72.81 3.17 3.3 5.48s5.05 3.59 5.72 2.87c.27-.29.18-.86-.17-1.59-3.6.43-7.7-4.32-7.7-6.64z"
        />
        <path d="M64.98 17.16c-.35.4-1 1.34-1.31 1.66.39-.34.61-1.18.19-3.38a12 12 0 0 0-.69-2.55c-.11-.29-.29-.22-.49 0a8.12 8.12 0 0 0-.68 1.09c0 .19 0 0-.72-2.22a10.26 10.26 0 0 1-.62-2.9v-.73c0-.2-.09-.17-.54 0a7.74 7.74 0 0 0-2.93 3.43c-.46 1.16-.49 2.11-.56 1.53-.11-1.11-.09-1.11-.2-1.11a4.23 4.23 0 0 0-2.84 4.19c0 2.54 4.77 7.92 8.65 6.7 0 0 2.94-.56 3-3.21s-.26-2.5-.26-2.5zm-1 3.29a3.48 3.48 0 0 1-1.53 1.33 4.63 4.63 0 0 1-2.78.27 9.34 9.34 0 0 1-4.58-3.8c-2.25-3.65.77-5.21 1-5.26a5 5 0 0 0-.12 2 11.85 11.85 0 0 0 .78 1.69 1.68 1.68 0 0 1-.29 1.62c-.1.14.16.06.22 0a2.13 2.13 0 0 1 .17-.14 1.37 1.37 0 0 0 .68-1.3c-.26-1.12-1.07-1.83-.12-4.16a9.73 9.73 0 0 1 2.08-2.9c.21-.14.35-.33.36-.18s.25 1.2.37 1.88a10.1 10.1 0 0 1 .74 4c-.17 1.91-3.3 4-3.73 4.14a1.53 1.53 0 0 0-.42.22c-.11.11 0 .13.12.14a6.13 6.13 0 0 0 2.56-1 7.46 7.46 0 0 0 2-2.12 12.31 12.31 0 0 0 .86-2.58c.09-.22.18-.21.21-.09s.25 1 .34 1.38a9 9 0 0 1 .19 1.63 2.93 2.93 0 0 1-1.25 2.74 3 3 0 0 1-1.58.56h-.2c-.08 0-.15 0 0 .12l.2.08a2.63 2.63 0 0 0 2.13-.2 7.18 7.18 0 0 0 1.23-1c.2-.19.47-.55.5-.43a2.22 2.22 0 0 1-.1 1.36z"
        />
    </g>
</svg>