<svg id="_ÎÓÈ_1" data-name="—ÎÓÈ_1" xmlns="http://www.w3.org/2000/svg" viewBox="0 0 266.0164 261.37159"><defs><style>.cls-1,.cls-5{fill:#054ba3;}.cls-1,.cls-11,.cls-12,.cls-2,.cls-3,.cls-4,.cls-9{fill-rule:evenodd;}.cls-2,.cls-8{fill:#e75627;}.cls-10,.cls-3{fill:#3a5c7f;}.cls-4,.cls-6{fill:#ff9501;}.cls-11,.cls-7{fill:#06a6e0;}.cls-14,.cls-9{fill:#5ba921;}.cls-12,.cls-13{fill:#57a8dd;}</style></defs><polygon class="cls-1" points="58.327 21.128 116.645 51.664 116.104 52.7 57.786 22.164 58.327 21.128"/><polygon class="cls-2" points="120.865 118.803 152.558 158.322 151.646 159.056 119.952 119.537 120.865 118.803"/><polygon class="cls-3" points="218.684 75.885 198.31 122.255 197.237 121.788 217.611 75.417 218.684 75.885"/><polygon class="cls-4" points="223.577 40.285 218.727 75.729 217.567 75.573 222.417 40.129 223.577 40.285"/><polygon class="cls-4" points="16.667 61.148 77.805 94.834 77.241 95.862 16.103 62.175 16.667 61.148"/><polygon class="cls-4" points="83.307 147.813 76.941 95.417 78.106 95.279 84.472 147.675 83.307 147.813"/><rect class="cls-5" x="255.10173" y="118.764" width="0.58589" height="56.53841" transform="translate(-85.90443 246.45806) rotate(-58.15047)"/><polygon class="cls-3" points="120.429 118.585 197.794 121.437 197.753 122.606 120.388 119.755 120.429 118.585"/><rect class="cls-6" x="196.6091" y="145.36911" width="39.86046" height="1.17186" transform="translate(-123.27918 145.18131) rotate(-42.60486)"/><rect class="cls-7" x="202.78316" y="204.95552" width="32.50204" height="1.17139" transform="translate(-148.33042 72.97646) rotate(-25.21666)"/><polygon class="cls-2" points="120.528 119.505 122.99 172.523 122.405 172.549 119.943 119.53 120.528 119.505"/><rect class="cls-8" x="160.59878" y="172.80081" width="46.36928" height="1.16957" transform="translate(-149.43783 110.15515) rotate(-38.04092)"/><polygon class="cls-3" points="150.749 212.88 151.517 158.682 152.687 158.696 151.918 212.894 150.749 212.88"/><polygon class="cls-3" points="182.498 183.815 151.739 213.309 150.928 212.465 181.686 182.971 182.498 183.815"/><polygon class="cls-9" points="198.342 122.166 182.661 183.537 181.523 183.248 197.205 121.877 198.342 122.166"/><polygon class="cls-1" points="230.12 172.78 197.527 122.18 198.02 121.863 230.613 172.464 230.12 172.78"/><rect class="cls-8" x="248.43895" y="191.54222" width="0.58494" height="38.85478" transform="translate(-153.88419 228.89027) rotate(-50.52059)"/><rect class="cls-10" x="227.28741" y="179.89355" width="58.56913" height="0.78075" transform="translate(-137.99959 160.4001) rotate(-38.75937)"/><polygon class="cls-3" points="197.88 121.645 251.386 136.995 251.173 137.747 197.666 122.398 197.88 121.645"/><polygon class="cls-2" points="197.637 121.762 252.312 92.831 252.585 93.35 197.909 122.281 197.637 121.762"/><polygon class="cls-9" points="175.531 66.427 198.136 121.875 197.411 122.168 174.806 66.72 175.531 66.427"/><polygon class="cls-11" points="223.138 40.464 175.309 66.83 175.027 66.317 222.856 39.951 223.138 40.464"/><polygon class="cls-11" points="62.238 61.213 116.325 51.893 116.424 52.471 62.336 61.791 62.238 61.213"/><polygon class="cls-9" points="174.584 66.608 171.581 17.657 172.751 17.588 175.753 66.539 174.584 66.608"/><polygon class="cls-9" points="175.031 67.143 116.237 52.75 116.512 51.613 175.306 66.005 175.031 67.143"/><polygon class="cls-4" points="149.333 91.774 174.753 66.161 175.583 66.986 150.162 92.6 149.333 91.774"/><polygon class="cls-11" points="149.522 92.374 116.15 52.369 116.599 51.995 149.972 92 149.522 92.374"/><polygon class="cls-2" points="120.116 119.187 116.082 52.902 116.667 52.868 120.701 119.153 120.116 119.187"/><rect class="cls-10" x="180.30759" y="122.65879" width="0.58521" height="49.05777" transform="translate(-117.40146 193.66405) rotate(-60.9488)"/><rect class="cls-10" x="120.71139" y="149.79745" width="44.38156" height="1.17141" transform="translate(-145.78365 97.57681) rotate(-42.90224)"/><polygon class="cls-3" points="76.781 95.64 16.788 100.796 16.74 100.212 76.733 95.056 76.781 95.64"/><rect class="cls-10" x="150.95335" y="99.79521" width="1.17216" height="37.11719" transform="translate(-116.86121 32.70637) rotate(-24.23521)"/><rect class="cls-7" x="149.54541" y="113.10757" width="58.07534" height="1.1723" transform="translate(-107.02615 130.44337) rotate(-48.01161)"/><polygon class="cls-11" points="172.473 18.12 116.682 52.679 116.067 51.684 171.859 17.125 172.473 18.12"/><rect class="cls-10" x="141.41557" y="61.4629" width="0.78107" height="40.07991" transform="translate(-89.44534 -24.5049) rotate(-6.05924)"/><polygon class="cls-9" points="62.287 62.087 16.385 62.246 16.385 61.077 62.287 60.917 62.287 62.087"/><polygon class="cls-2" points="16.97 61.657 17.349 100.499 16.179 100.509 15.801 61.666 16.97 61.657"/><polygon class="cls-2" points="17.151 100.066 45.4 125.123 44.625 125.999 16.377 100.942 17.151 100.066"/><polygon class="cls-11" points="45.302 125.052 84.178 147.235 83.601 148.253 44.724 126.07 45.302 125.052"/><polygon class="cls-4" points="84.204 147.251 123.012 172.043 122.383 173.029 83.575 148.237 84.204 147.251"/><polygon class="cls-11" points="123.016 172.31 151.651 212.66 151.015 213.113 122.38 172.763 123.016 172.31"/><rect class="cls-10" x="242.67993" y="250.41076" width="1.17113" height="46.50118" transform="translate(-177.67998 96.12213) rotate(-26.28976)"/><rect class="cls-5" x="222.69124" y="258.62148" width="71.90712" height="0.58584" transform="translate(-115.86056 438.44037) rotate(-81.87489)"/><polygon class="cls-12" points="181.966 182.822 230.24 172.051 230.492 173.193 182.218 183.964 181.966 182.822"/><polygon class="cls-9" points="229.862 172.324 250.775 137.073 251.784 137.669 230.871 172.92 229.862 172.324"/><polygon class="cls-2" points="250.89 137.362 252.058 93.081 252.838 93.1 251.669 137.38 250.89 137.362"/><rect class="cls-7" x="318.77219" y="76.31227" width="1.16981" height="60.53115" transform="translate(-93.14034 128.91817) rotate(-29.11372)"/><polygon class="cls-11" points="222.761 40.742 171.93 18.157 172.402 17.088 223.233 39.673 222.761 40.742"/><rect class="cls-6" x="89.96885" y="80.99698" width="57.7728" height="1.17105" transform="matrix(0.72129, -0.69263, 0.69263, 0.72129, -105.01504, 65.13194)"/><rect class="cls-8" x="138.60648" y="53.54889" width="52.13514" height="1.17233" transform="translate(-90.23555 9.32257) rotate(-16.58337)"/><polygon class="cls-4" points="172.102 18.008 107.959 7.151 108.087 6.381 172.23 17.237 172.102 18.008"/><polygon class="cls-2" points="116.086 52.232 108.038 6.847 108.616 6.746 116.663 52.131 116.086 52.232"/><polygon class="cls-9" points="175.248 66.191 218.227 75.269 218.068 76.033 175.089 66.956 175.248 66.191"/><polygon class="cls-4" points="252.309 94.482 218.009 75.909 218.286 75.393 252.587 93.966 252.309 94.482"/><path class="cls-10" d="M58.0391,8.4175h.0348A13.2112,13.2112,0,0,1,71.2851,21.6287v.0345A13.2114,13.2114,0,0,1,58.0737,34.8746h-.0344A13.2114,13.2114,0,0,1,44.8279,21.6632v-.0345A13.2112,13.2112,0,0,1,58.0391,8.4175Z"/><path class="cls-7" d="M116.3491,32.9777h.05022A19.17918,19.17918,0,0,1,135.5785,52.15688v.04994A19.17918,19.17918,0,0,1,116.39932,71.386h-.05022A19.1789,19.1789,0,0,1,97.1702,52.2071v-.0505A19.1789,19.1789,0,0,1,116.3491,32.9777Z"/><path class="cls-13" d="M230.3517,161.4362h.0296a11.171,11.171,0,0,1,11.171,11.171v.0292a11.1714,11.1714,0,0,1-11.1714,11.1714h-.0288a11.1714,11.1714,0,0,1-11.1714-11.1714v-.0292A11.171,11.171,0,0,1,230.3517,161.4362Z"/><path class="cls-14" d="M182.0718,167.9584h.0405a15.4146,15.4146,0,0,1,15.4146,15.4146v.0405a15.4145,15.4145,0,0,1-15.4145,15.4145h-.0406a15.4145,15.4145,0,0,1-15.4145-15.4145v-.0406a15.4145,15.4145,0,0,1,15.4145-15.4145Z"/><rect class="cls-8" x="9.464" y="93.204" width="14.6001" height="14.6001" rx="7.2904"/><rect class="cls-14" x="55.2937" y="54.5085" width="13.9867" height="13.987" rx="6.9843"/><path class="cls-6" d="M16.9359,44.187H16.98A16.9362,16.9362,0,0,1,33.9162,61.1232v.0446A16.9358,16.9358,0,0,1,16.9804,78.1036h-.0445A16.9359,16.9359,0,0,1,0,61.1677v-.0448A16.9359,16.9359,0,0,1,16.9359,44.187Z"/><path class="cls-8" d="M120.2212,108.7211h.0284a10.7824,10.7824,0,0,1,10.7824,10.7824v.028a10.7825,10.7825,0,0,1-10.7825,10.7825h-.0282a10.7825,10.7825,0,0,1-10.7825-10.7825v-.028A10.7824,10.7824,0,0,1,120.2212,108.7211Z"/><path class="cls-6" d="M172.1465,2.429h.0395a15.1738,15.1738,0,0,1,15.1738,15.1738v.0394a15.1736,15.1736,0,0,1-15.1736,15.1736h-.0399a15.1736,15.1736,0,0,1-15.1736-15.1736v-.0394A15.1738,15.1738,0,0,1,172.1465,2.429Z"/><path class="cls-10" d="M197.7442,99.9218h.0579a22.0708,22.0708,0,0,1,22.0708,22.0708v.0578a22.0709,22.0709,0,0,1-22.0709,22.0709h-.0578a22.0708,22.0708,0,0,1-22.0708-22.0708v-.0579A22.0708,22.0708,0,0,1,197.7442,99.9218Z"/><rect class="cls-8" x="238.8801" y="79.5226" width="27.1363" height="27.13628" rx="13.5504"/><path class="cls-8" d="M108.318,0h.0176a6.7881,6.7881,0,0,1,6.7881,6.7881V6.806a6.7878,6.7878,0,0,1-6.7878,6.7878h-.0182a6.7878,6.7878,0,0,1-6.7878-6.7878V6.7881A6.7881,6.7881,0,0,1,108.318,0Z"/><path class="cls-7" d="M122.6806,159.3641h.0343a13.155,13.155,0,0,1,13.155,13.155v.0346a13.1547,13.1547,0,0,1-13.1547,13.1547h-.0349a13.1547,13.1547,0,0,1-13.1547-13.1547v-.0346a13.155,13.155,0,0,1,13.155-13.155Z"/><path class="cls-6" d="M150.3777,85.678h.0155a5.8632,5.8632,0,0,1,5.8632,5.8632v.0157a5.8631,5.8631,0,0,1-5.8631,5.8631h-.0157a5.8631,5.8631,0,0,1-5.8631-5.8631v-.0157a5.8632,5.8632,0,0,1,5.8632-5.8632Z"/><path class="cls-10" d="M77.5054,81.8634h.0351A13.4669,13.4669,0,0,1,91.0074,95.3303v.0354a13.4668,13.4668,0,0,1-13.4668,13.4668h-.0352A13.4668,13.4668,0,0,1,64.0386,95.3657v-.0355A13.4668,13.4668,0,0,1,77.5054,81.8634Z"/><path class="cls-10" d="M151.3199,202.51788h.0269a10.3558,10.3558,0,0,1,10.3558,10.3558v.02722a10.3555,10.3555,0,0,1-10.3555,10.3555h-.0272a10.3558,10.3558,0,0,1-10.3558-10.3558v-.02692A10.3558,10.3558,0,0,1,151.3199,202.51788Z"/><path class="cls-14" d="M251.2703,130.1706h.0185a7.1912,7.1912,0,0,1,7.1912,7.1912v.0188a7.1909,7.1909,0,0,1-7.1909,7.1909h-.019a7.191,7.191,0,0,1-7.191-7.191v-.0187A7.1912,7.1912,0,0,1,251.2703,130.1706Z"/><rect class="cls-14" x="162.2134" y="53.619" width="25.9092" height="25.9095" rx="12.9376"/><path class="cls-8" d="M152.094,152.3744h.0162a6.3062,6.3062,0,0,1,6.3062,6.3062v.0165a6.3059,6.3059,0,0,1-6.3059,6.3059h-.0168a6.3059,6.3059,0,0,1-6.3059-6.3059v-.0165A6.3062,6.3062,0,0,1,152.094,152.3744Z"/><path class="cls-6" d="M83.8796,140.341h.0199a7.3928,7.3928,0,0,1,7.3928,7.3928v.0198a7.3928,7.3928,0,0,1-7.3928,7.3928h-.0199a7.393,7.393,0,0,1-7.393-7.393v-.0194a7.393,7.393,0,0,1,7.393-7.393Z"/><rect class="cls-7" x="29.9066" y="110.4545" width="30.2122" height="30.212" rx="15.0863"/><rect class="cls-7" x="215.4645" y="32.6747" width="15.0653" height="15.0653" rx="7.5229"/><path class="cls-8" d="M171.9201,247.78549h.0178a6.7842,6.7842,0,0,1,6.7842,6.7842v.0178a6.7841,6.7841,0,0,1-6.7841,6.7841h-.018a6.7841,6.7841,0,0,1-6.7841-6.7841v-.0178A6.7842,6.7842,0,0,1,171.9201,247.78549Z"/><rect class="cls-6" x="207.8668" y="65.3703" width="20.5611" height="20.5611" rx="10.2671"/></svg>